<svg width="12" height="12" viewBox="0 0 12 12" fill="none" xmlns="http://www.w3.org/2000/svg">
<g clip-path="url(#clip0_11240_36894)">
<path fill-rule="evenodd" clip-rule="evenodd" d="M10.2929 0.292893C10.6834 -0.0976311 11.3166 -0.0976311 11.7071 0.292893C12.0976 0.683417 12.0976 1.31658 11.7071 1.70711L7.41421 6L11.7071 10.2929C12.0976 10.6834 12.0976 11.3166 11.7071 11.7071C11.3166 12.0976 10.6834 12.0976 10.2929 11.7071L6 7.41421L1.70711 11.7071C1.31658 12.0976 0.683417 12.0976 0.292893 11.7071C-0.0976315 11.3166 -0.0976315 10.6834 0.292893 10.2929L4.58579 6L0.292893 1.70711C-0.0976315 1.31658 -0.0976315 0.683417 0.292893 0.292893C0.683417 -0.0976311 1.31658 -0.0976311 1.70711 0.292893L6 4.58579L10.2929 0.292893Z" fill="#6C7694"/>
</g>
<defs>
<clipPath id="clip0_11240_36894">
<rect width="12" height="12" fill="white" transform="matrix(-1 0 0 1 12 0)"/>
</clipPath>
</defs>
</svg>
