<svg width="20" height="20" viewBox="0 0 20 20" fill="none" xmlns="http://www.w3.org/2000/svg">
<rect width="20" height="20" rx="10" fill="#F0F1F4"/>
<g clip-path="url(#clip0_11410_32362)">
<path fill-rule="evenodd" clip-rule="evenodd" d="M7.52865 6.46821C7.23576 6.17531 6.76088 6.17531 6.46799 6.46821C6.1751 6.7611 6.1751 7.23597 6.46799 7.52887L8.93933 10.0002L6.46799 12.4715C6.1751 12.7644 6.1751 13.2393 6.46799 13.5322C6.76088 13.8251 7.23576 13.8251 7.52865 13.5322L9.99999 11.0609L12.4713 13.5322C12.7642 13.8251 13.2391 13.8251 13.532 13.5322C13.8249 13.2393 13.8249 12.7644 13.532 12.4715L11.0607 10.0002L13.532 7.52887C13.8249 7.23597 13.8249 6.7611 13.532 6.46821C13.2391 6.17531 12.7642 6.17531 12.4713 6.46821L9.99999 8.93954L7.52865 6.46821Z" fill="#6C7694"/>
</g>
<defs>
<clipPath id="clip0_11410_32362">
<rect width="7.50334" height="7.50334" fill="white" transform="translate(6.24832 6.24854)"/>
</clipPath>
</defs>
</svg>
