<svg width="22" height="22" viewBox="0 0 22 22" fill="none" xmlns="http://www.w3.org/2000/svg">
<g clip-path="url(#clip0_11410_34197)">
<path d="M7.65553 2.92645L10.2865 0.295478C10.4758 0.106284 10.7324 0 11 0C11.2676 0 11.5242 0.106284 11.7135 0.295478L14.3445 2.92645H18.0644C18.332 2.92645 18.5887 3.03277 18.778 3.22203C18.9672 3.41129 19.0736 3.66799 19.0736 3.93564V7.65553L21.7045 10.2865C21.8937 10.4758 22 10.7324 22 11C22 11.2676 21.8937 11.5242 21.7045 11.7135L19.0736 14.3445V18.0644C19.0736 18.332 18.9672 18.5887 18.778 18.778C18.5887 18.9672 18.332 19.0736 18.0644 19.0736H14.3445L11.7135 21.7045C11.5242 21.8937 11.2676 22 11 22C10.7324 22 10.4758 21.8937 10.2865 21.7045L7.65553 19.0736H3.93564C3.66799 19.0736 3.41129 18.9672 3.22203 18.778C3.03277 18.5887 2.92645 18.332 2.92645 18.0644V14.3445L0.295478 11.7135C0.106284 11.5242 0 11.2676 0 11C0 10.7324 0.106284 10.4758 0.295478 10.2865L2.92645 7.65553V3.93564C2.92645 3.66799 3.03277 3.41129 3.22203 3.22203C3.41129 3.03277 3.66799 2.92645 3.93564 2.92645H7.65553ZM5.94484 4.94484C5.39255 4.94484 4.94484 5.39255 4.94484 5.94484V8.07794C4.94484 8.34316 4.83948 8.59751 4.65194 8.78505L3.1441 10.2929C2.75357 10.6834 2.75357 11.3166 3.1441 11.7071L4.65194 13.215C4.83948 13.4025 4.94484 13.6568 4.94484 13.9221V16.0552C4.94484 16.6075 5.39255 17.0552 5.94484 17.0552H8.07794C8.34316 17.0552 8.59751 17.1605 8.78505 17.3481L10.2929 18.8559C10.6834 19.2464 11.3166 19.2464 11.7071 18.8559L13.215 17.3481C13.4025 17.1605 13.6568 17.0552 13.9221 17.0552H16.0552C16.6075 17.0552 17.0552 16.6075 17.0552 16.0552V13.9221C17.0552 13.6568 17.1605 13.4025 17.3481 13.215L18.8559 11.7071C19.2464 11.3166 19.2464 10.6834 18.8559 10.2929L17.3481 8.78505C17.1605 8.59751 17.0552 8.34316 17.0552 8.07794V5.94484C17.0552 5.39255 16.6075 4.94484 16.0552 4.94484H13.5078L11.7071 3.1441C11.3166 2.75357 10.6834 2.75357 10.2929 3.1441L8.78505 4.65194C8.59751 4.83948 8.34316 4.94484 8.07794 4.94484H5.94484ZM11 15.0368C9.92938 15.0368 8.90261 14.6115 8.14557 13.8544C7.38853 13.0974 6.96322 12.0706 6.96322 11C6.96322 9.92938 7.38853 8.90261 8.14557 8.14557C8.90261 7.38853 9.92938 6.96322 11 6.96322C12.0706 6.96322 13.0974 7.38853 13.8544 8.14557C14.6115 8.90261 15.0368 9.92938 15.0368 11C15.0368 12.0706 14.6115 13.0974 13.8544 13.8544C13.0974 14.6115 12.0706 15.0368 11 15.0368ZM11 13.0184C11.5353 13.0184 12.0487 12.8057 12.4272 12.4272C12.8057 12.0487 13.0184 11.5353 13.0184 11C13.0184 10.4647 12.8057 9.95131 12.4272 9.57278C12.0487 9.19426 11.5353 8.98161 11 8.98161C10.4647 8.98161 9.95131 9.19426 9.57278 9.57278C9.19426 9.95131 8.98161 10.4647 8.98161 11C8.98161 11.5353 9.19426 12.0487 9.57278 12.4272C9.95131 12.8057 10.4647 13.0184 11 13.0184Z" fill="#091334"/>
</g>
<defs>
<clipPath id="clip0_11410_34197">
<rect width="22" height="22" fill="white"/>
</clipPath>
</defs>
</svg>
