<svg width="12" height="16" viewBox="0 0 12 16" fill="none" xmlns="http://www.w3.org/2000/svg">
<path fill-rule="evenodd" clip-rule="evenodd" d="M12 7.10352C12 3.10352 8.5 1.10352 6 1.10352C3.5 1.10352 0 3.10352 0 7.10352C0 11.1798 3.98793 14.5915 5.46136 15.7129C5.78261 15.9574 6.21739 15.9574 6.53864 15.7129C8.01207 14.5915 12 11.1798 12 7.10352ZM6 9.10352C7.10457 9.10352 8 8.20809 8 7.10352C8 5.99895 7.10457 5.10352 6 5.10352C4.89543 5.10352 4 5.99895 4 7.10352C4 8.20809 4.89543 9.10352 6 9.10352Z" fill="#C4C8D4"/>
</svg>
