<svg width="22" height="22" viewBox="0 0 22 22" fill="none" xmlns="http://www.w3.org/2000/svg">
<g opacity="0.2" clip-path="url(#clip0_11240_20339)">
<path d="M16.9804 18.5674C15.1922 19.7242 13.1176 20.3369 11 20.3335C6.13679 20.3335 1.99846 17.167 0.458062 12.7454C0.0651538 11.6176 0.0658217 10.383 0.458652 9.25512C1.06011 7.52828 2.0645 5.96609 3.39588 4.70925L0.920141 2.18645C0.528258 1.78712 0.528105 1.14758 0.919796 0.748065C1.32247 0.33734 1.98392 0.337348 2.38659 0.748083L21.0784 19.8145C21.47 20.2139 21.4699 20.8532 21.0781 21.2525C20.6755 21.6629 20.0142 21.6628 19.6118 21.2521L16.9804 18.5674ZM4.83353 6.17771C3.99651 6.95394 3.31333 7.87767 2.81292 8.89829C2.16573 10.2183 2.16728 11.7813 2.81517 13.1009C3.12232 13.7265 3.49845 14.3171 3.9378 14.8605C4.84446 15.982 5.99528 16.8722 7.29865 17.4601C8.60202 18.048 10.022 18.3175 11.4454 18.247C12.8689 18.1766 14.2566 17.7682 15.498 17.0543L13.4361 14.9512C12.5583 15.5151 11.5187 15.7581 10.4878 15.6402C9.45688 15.5223 8.49584 15.0506 7.7623 14.3024C7.02875 13.5542 6.56627 12.574 6.45071 11.5224C6.33514 10.4709 6.57335 9.41052 7.12626 8.51523L4.83353 6.17771ZM11.9293 13.4143L8.63305 10.0521C8.45214 10.5219 8.40956 11.0352 8.51054 11.5293C8.61152 12.0233 8.85167 12.4765 9.20153 12.8334C9.55138 13.1902 9.99574 13.4352 10.4801 13.5382C10.9645 13.6412 11.4678 13.5977 11.9283 13.4132L11.9293 13.4143ZM20.6006 14.7817C20.2886 15.3128 19.563 15.3633 19.1316 14.9235L19.0765 14.8674C18.7413 14.5257 18.7005 13.9972 18.9357 13.5804C19.0252 13.422 19.11 13.2609 19.19 13.0975C19.8351 11.78 19.833 10.2206 19.1874 8.90334C18.961 8.44119 18.6967 7.99786 18.3969 7.57824C17.6657 6.55504 16.7382 5.69416 15.6707 5.04795C14.6032 4.40174 13.4181 3.98369 12.1873 3.81921C11.1536 3.68109 10.106 3.72421 9.08925 3.94525C8.73021 4.02331 8.35072 3.92764 8.0935 3.66527L7.95621 3.52524C7.4568 3.01585 7.63978 2.16625 8.33192 1.99348C9.18724 1.77998 10.0811 1.66654 11 1.66654C15.8643 1.66654 20.0035 4.83442 21.543 9.25765C21.9349 10.3836 21.9347 11.6159 21.5431 12.7419C21.2962 13.4516 20.9806 14.1349 20.6006 14.7817ZM10.7184 6.34157C11.3655 6.30077 12.0138 6.40075 12.6202 6.63486C13.2266 6.86898 13.7773 7.23189 14.2358 7.69953C14.6943 8.16718 15.0501 8.72889 15.2796 9.34741C15.5091 9.96594 15.6071 10.6272 15.5672 11.2873L10.7184 6.34157Z" fill="#091334"/>
</g>
<defs>
<clipPath id="clip0_11240_20339">
<rect width="22" height="22" fill="white"/>
</clipPath>
</defs>
</svg>
