<svg width="23" height="22" viewBox="0 0 23 22" fill="none" xmlns="http://www.w3.org/2000/svg">
<path d="M0.450012 17.3359H0.45V17.337C0.45 18.3037 0.585307 19.1989 0.984758 19.8833C1.43252 20.6505 2.15318 21.05 3.00932 21.05C3.58973 21.05 4.16268 20.8921 4.63104 20.4836C5.09348 20.0803 5.34697 19.5259 5.46883 18.9416C5.47373 18.9181 5.49599 18.8962 5.52729 18.8962H16.2048C16.2361 18.8962 16.2584 18.9181 16.2633 18.9416C16.3852 19.5259 16.6387 20.0803 17.1011 20.4836C17.5695 20.8921 18.1424 21.05 18.7228 21.05C19.579 21.05 20.2997 20.6505 20.7474 19.8833C21.1469 19.1989 21.2822 18.3037 21.2822 17.337V12.9498C21.2822 12.6602 21.2757 12.3709 21.2628 12.0821C21.2377 11.5194 20.6512 11.1774 20.0987 11.2911C19.6386 11.3857 19.2729 11.7803 19.2918 12.2435C19.3014 12.4786 19.3062 12.7141 19.3062 12.9498V17.337C19.3062 18.1651 19.1796 18.616 19.0553 18.8291C18.9803 18.9576 18.8957 19.0203 18.814 19.0426C18.7319 19.065 18.6441 19.049 18.5583 19.0033C18.3846 18.9107 18.235 18.7037 18.1949 18.5116C17.9926 17.5417 17.1609 16.8547 16.2048 16.8547H5.52739C4.57125 16.8546 3.73948 17.5417 3.53722 18.5116C3.49715 18.7037 3.34761 18.9107 3.17384 19.0033C3.08811 19.049 3.0003 19.065 2.9182 19.0426C2.83648 19.0203 2.7519 18.9576 2.67686 18.8291C2.55253 18.616 2.42594 18.1651 2.42594 17.337V17.3082C2.42593 13.5166 2.42636 9.97805 3.70879 6.35256C4.01717 5.48077 4.82523 4.89626 5.73434 4.89626H11.5668C12.0421 4.89626 12.4273 4.52895 12.5187 4.08471C12.6428 3.4809 12.2024 2.85476 11.5576 2.85476H5.73434C4.00042 2.85476 2.44778 3.97004 1.85291 5.65178L1.8529 5.65178L1.85265 5.65253C0.617671 9.32809 0.548055 12.658 0.465312 16.6158L0.465241 16.6192L0.465241 16.6192C0.460295 16.8558 0.455303 17.0946 0.450012 17.3359ZM17.988 0.95C15.9534 0.95 14.2714 2.51179 14.2714 4.47677C14.2714 6.44175 15.9534 8.00354 17.988 8.00354C18.5892 8.00354 19.1594 7.86728 19.6645 7.62464L21.2074 9.08121C21.5192 9.37558 22.0186 9.37042 22.3239 9.06956C22.6301 8.76771 22.6246 8.28283 22.3118 7.9875L20.9066 6.66096C21.4053 6.06244 21.7046 5.30512 21.7046 4.47677C21.7046 2.51179 20.0226 0.95 17.988 0.95ZM15.8523 4.47677C15.8523 3.39023 16.7907 2.47857 17.988 2.47857C19.1853 2.47857 20.1237 3.39023 20.1237 4.47677C20.1237 5.56331 19.1853 6.47497 17.988 6.47497C16.7907 6.47497 15.8523 5.56331 15.8523 4.47677ZM7.24943 13.0293C7.24943 12.5738 7.11569 12.1571 6.84383 11.8537C6.57124 11.5494 6.16414 11.3639 5.62808 11.3639C5.09201 11.3639 4.68492 11.5494 4.41232 11.8537C4.14047 12.1571 4.00673 12.5738 4.00673 13.0293C4.00673 13.4848 4.14047 13.9015 4.41232 14.2049C4.68492 14.5092 5.09201 14.6947 5.62808 14.6947C6.16414 14.6947 6.57124 14.5092 6.84383 14.2049C7.11569 13.9015 7.24943 13.4848 7.24943 13.0293ZM17.7251 13.0293C17.7251 12.5738 17.5914 12.1571 17.3195 11.8537C17.0469 11.5494 16.6398 11.3639 16.1038 11.3639C15.5677 11.3639 15.1606 11.5494 14.888 11.8537C14.6162 12.1571 14.4824 12.5738 14.4824 13.0293C14.4824 13.4848 14.6162 13.9015 14.888 14.2049C15.1606 14.5092 15.5677 14.6947 16.1038 14.6947C16.6398 14.6947 17.0469 14.5092 17.3195 14.2049C17.5914 13.9015 17.7251 13.4848 17.7251 13.0293Z" fill="#091334" stroke="#091334" stroke-width="0.1"/>
</svg>
