<svg width="14" height="18" viewBox="0 0 14 18" fill="none" xmlns="http://www.w3.org/2000/svg">
<path d="M6.75 0.5C3.15643 0.5 0.25 3.1605 0.25 6.45C0.25 10.0101 4.3869 14.9226 6.06006 16.7639C6.435 17.1765 7.065 17.1765 7.43994 16.7639C9.1131 14.9226 13.25 10.0101 13.25 6.45C13.25 3.1605 10.3436 0.5 6.75 0.5ZM2.10714 6.45C2.10714 4.104 4.18714 2.2 6.75 2.2C9.31286 2.2 11.3929 4.104 11.3929 6.45C11.3929 8.898 8.71857 12.5615 6.75 14.848C4.81857 12.5785 2.10714 8.8725 2.10714 6.45Z" fill="white"/>
<path d="M6.75 9.00103C8.03209 9.00103 9.07143 7.99956 9.07143 6.76419C9.07143 5.52881 8.03209 4.52734 6.75 4.52734C5.46791 4.52734 4.42857 5.52881 4.42857 6.76419C4.42857 7.99956 5.46791 9.00103 6.75 9.00103Z" fill="white"/>
</svg>
