<svg width="16" height="16" viewBox="0 0 16 16" fill="none" xmlns="http://www.w3.org/2000/svg">
<rect width="16" height="16" rx="8" fill="#F0F1F4"/>
<path d="M5.8949 6.44511L5.90012 6.34013C5.92671 5.80642 6.11456 5.31981 6.47277 4.9662C6.83174 4.61184 7.35273 4.4 8.02791 4.4C9.2438 4.4 10.1 5.17584 10.1 6.22147C10.1 7.00965 9.69889 7.5668 9.0803 7.94727L9.0796 7.9477L9.07959 7.9477C8.7882 8.12364 8.61389 8.27015 8.51053 8.4252C8.40942 8.57689 8.36977 8.74668 8.36977 8.98438V9.29348V9.39348H8.26977H7.45581H7.35581V9.29348V8.85634V8.85598H7.45581C7.45116 8.22826 7.74884 7.80027 8.38605 7.41033L5.8949 6.44511ZM5.8949 6.44511H6H6.79535H6.88811L6.89507 6.35261C6.91911 6.03307 7.03502 5.78251 7.21915 5.6118C7.40325 5.44113 7.66462 5.34185 7.99535 5.34185C8.32098 5.34185 8.58043 5.44325 8.7574 5.60561C8.93385 5.76751 9.03488 5.99583 9.03488 6.26427C9.03488 6.50363 8.98606 6.68538 8.87944 6.84625C8.77115 7.00963 8.59784 7.15978 8.33341 7.3253L5.8949 6.44511ZM7.92558 11.6C8.36058 11.6 8.66744 11.2763 8.66744 10.839C8.66744 10.621 8.59302 10.4288 8.45981 10.2905C8.32635 10.152 8.13928 10.0732 7.92558 10.0732C7.49106 10.0732 7.17907 10.3964 7.17907 10.839C7.17907 11.2773 7.49153 11.6 7.92558 11.6Z" fill="#6C7694" stroke="#6C7694" stroke-width="0.2"/>
</svg>
