<svg width="19" height="20" viewBox="0 0 19 20" fill="none" xmlns="http://www.w3.org/2000/svg">
<path d="M11.1206 15.0222L6.92143 12.7325C6.37321 13.3185 5.66137 13.7261 4.87844 13.9022C4.0955 14.0784 3.27766 14.0151 2.53121 13.7204C1.78476 13.4258 1.1442 12.9135 0.692796 12.2501C0.241389 11.5867 0 10.8029 0 10.0005C0 9.19814 0.241389 8.41433 0.692796 7.75093C1.1442 7.08753 1.78476 6.57522 2.53121 6.28058C3.27766 5.98594 4.0955 5.92259 4.87844 6.09876C5.66137 6.27494 6.37321 6.68249 6.92143 7.26846L11.1216 4.97884C10.8831 4.03507 10.9971 3.03675 11.4422 2.17101C11.8873 1.30527 12.6329 0.631544 13.5393 0.276124C14.4457 -0.0792965 15.4506 -0.0920114 16.3657 0.240363C17.2808 0.572737 18.0432 1.22738 18.5101 2.08158C18.977 2.93579 19.1162 3.9309 18.9017 4.8804C18.6872 5.8299 18.1337 6.66859 17.345 7.23927C16.5563 7.80995 15.5864 8.07343 14.6173 7.98033C13.6481 7.88723 12.7462 7.44394 12.0806 6.73355L7.88046 9.02316C8.04167 9.66441 8.04167 10.3356 7.88046 10.9768L12.0796 13.2665C12.7452 12.5561 13.6471 12.1128 14.6163 12.0197C15.5854 11.9266 16.5553 12.1901 17.344 12.7607C18.1327 13.3314 18.6862 14.1701 18.9007 15.1196C19.1152 16.0691 18.976 17.0642 18.5091 17.9184C18.0422 18.7726 17.2798 19.4273 16.3647 19.7596C15.4496 20.092 14.4447 20.0793 13.5383 19.7239C12.6319 19.3685 11.8863 18.6947 11.4412 17.829C10.9961 16.9633 10.8821 15.9649 11.1206 15.0212V15.0222ZM4.00033 11.9997C4.53078 11.9997 5.03951 11.789 5.41459 11.414C5.78968 11.039 6.0004 10.5303 6.0004 10C6.0004 9.46966 5.78968 8.96103 5.41459 8.58602C5.03951 8.21101 4.53078 8.00033 4.00033 8.00033C3.46988 8.00033 2.96116 8.21101 2.58608 8.58602C2.21099 8.96103 2.00027 9.46966 2.00027 10C2.00027 10.5303 2.21099 11.039 2.58608 11.414C2.96116 11.789 3.46988 11.9997 4.00033 11.9997ZM15.0007 6.00067C15.5311 6.00067 16.0399 5.78999 16.4149 5.41498C16.79 5.03997 17.0008 4.53135 17.0008 4.001C17.0008 3.47066 16.79 2.96203 16.4149 2.58702C16.0399 2.21201 15.5311 2.00133 15.0007 2.00133C14.4702 2.00133 13.9615 2.21201 13.5864 2.58702C13.2113 2.96203 13.0006 3.47066 13.0006 4.001C13.0006 4.53135 13.2113 5.03997 13.5864 5.41498C13.9615 5.78999 14.4702 6.00067 15.0007 6.00067ZM15.0007 17.9987C15.5311 17.9987 16.0399 17.788 16.4149 17.413C16.79 17.038 17.0008 16.5293 17.0008 15.999C17.0008 15.4687 16.79 14.96 16.4149 14.585C16.0399 14.21 15.5311 13.9993 15.0007 13.9993C14.4702 13.9993 13.9615 14.21 13.5864 14.585C13.2113 14.96 13.0006 15.4687 13.0006 15.999C13.0006 16.5293 13.2113 17.038 13.5864 17.413C13.9615 17.788 14.4702 17.9987 15.0007 17.9987Z" fill="#091334"/>
</svg>
