<svg width="31" height="30" viewBox="0 0 31 30" fill="none" xmlns="http://www.w3.org/2000/svg">
<path d="M15.125 30C6.8405 30 0.125 23.2845 0.125 15C0.125 6.7155 6.8405 0 15.125 0C23.4095 0 30.125 6.7155 30.125 15C30.125 23.2845 23.4095 30 15.125 30ZM10.46 16.755L10.4795 16.7445L11.7845 21.0495C11.9525 21.516 12.1835 21.6 12.464 21.561C12.746 21.5235 12.8945 21.372 13.079 21.195L14.861 19.473L18.686 22.305C19.385 22.6905 19.8875 22.491 20.0615 21.657L22.547 9.924C22.8215 8.832 22.3415 8.394 21.494 8.742L6.8945 14.382C5.8985 14.781 5.9045 15.339 6.7145 15.5865L10.46 16.7565V16.755Z" fill="#6C7694"/>
</svg>
