<svg width="31" height="30" viewBox="0 0 31 30" fill="none" xmlns="http://www.w3.org/2000/svg">
<rect x="0.5" width="30" height="30" rx="15" fill="#6B7593"/>
<path d="M23.4992 10.0432C22.9 10.3081 22.2645 10.4821 21.6138 10.5594C22.2996 10.1495 22.813 9.50438 23.0581 8.7443C22.4144 9.12708 21.7088 9.39534 20.9733 9.54045C20.4793 9.01223 19.8245 8.66191 19.1106 8.54395C18.3968 8.426 17.664 8.54702 17.0261 8.8882C16.3882 9.22937 15.881 9.7716 15.5833 10.4306C15.2856 11.0895 15.2141 11.8283 15.3799 12.5321C14.0747 12.4667 12.7977 12.1278 11.6321 11.5372C10.4664 10.9467 9.43809 10.1178 8.61381 9.10433C8.32205 9.60512 8.16872 10.1744 8.16954 10.7539C8.16954 11.8913 8.74882 12.8961 9.62951 13.4843C9.10833 13.468 8.59861 13.3273 8.14286 13.0741V13.1149C8.14301 13.8724 8.40531 14.6065 8.88528 15.1928C9.36525 15.7791 10.0333 16.1814 10.7763 16.3317C10.2925 16.4627 9.78517 16.482 9.29278 16.3881C9.50225 17.0402 9.91052 17.6104 10.4604 18.019C11.0103 18.4276 11.6744 18.6541 12.3595 18.6668C11.6786 19.2012 10.8989 19.5963 10.0651 19.8294C9.23123 20.0625 8.3596 20.1291 7.5 20.0253C9.00055 20.9897 10.7473 21.5017 12.5314 21.5C18.5699 21.5 21.8721 16.5011 21.8721 12.1658C21.8721 12.0246 21.8681 11.8818 21.8619 11.7422C22.5046 11.278 23.0593 10.7029 23.5 10.044L23.4992 10.0432Z" fill="#F0F1F4"/>
</svg>
