<svg width="31" height="30" viewBox="0 0 31 30" fill="none" xmlns="http://www.w3.org/2000/svg">
<path d="M0.88102 30L2.90902 22.548C1.57273 20.2573 0.870664 17.652 0.87502 15C0.87502 6.7155 7.59052 0 15.875 0C24.1595 0 30.875 6.7155 30.875 15C30.875 23.2845 24.1595 30 15.875 30C13.2242 30.0043 10.62 29.3028 8.33002 27.9675L0.88102 30ZM10.4615 7.962C10.2678 7.97403 10.0785 8.02505 9.90502 8.112C9.7423 8.20414 9.59376 8.31934 9.46402 8.454C9.28402 8.6235 9.18202 8.7705 9.07252 8.913C8.51814 9.63449 8.21993 10.5201 8.22502 11.43C8.22802 12.165 8.42002 12.8805 8.72002 13.5495C9.33352 14.9025 10.343 16.335 11.6765 17.6625C11.9975 17.982 12.311 18.303 12.6485 18.6015C14.3036 20.0587 16.2759 21.1096 18.4085 21.6705L19.262 21.801C19.5395 21.816 19.817 21.795 20.096 21.7815C20.5329 21.7589 20.9594 21.6407 21.3455 21.435C21.5945 21.303 21.7115 21.237 21.92 21.105C21.92 21.105 21.9845 21.063 22.1075 20.97C22.31 20.82 22.4345 20.7135 22.6025 20.538C22.727 20.409 22.835 20.2575 22.9175 20.085C23.0345 19.8405 23.1515 19.374 23.1995 18.9855C23.2355 18.6885 23.225 18.5265 23.2205 18.426C23.2145 18.2655 23.081 18.099 22.9355 18.0285L22.0625 17.637C22.0625 17.637 20.7575 17.0685 19.961 16.7055C19.877 16.6689 19.787 16.648 19.6955 16.644C19.5929 16.6335 19.4892 16.645 19.3914 16.6779C19.2936 16.7107 19.204 16.7641 19.1285 16.8345V16.8315C19.121 16.8315 19.0205 16.917 17.936 18.231C17.8738 18.3146 17.788 18.3779 17.6897 18.4126C17.5914 18.4473 17.485 18.452 17.384 18.426C17.2863 18.3999 17.1905 18.3668 17.0975 18.327C16.9115 18.249 16.847 18.219 16.7195 18.1635L16.712 18.1605C15.8539 17.7858 15.0594 17.2798 14.357 16.6605C14.168 16.4955 13.9925 16.3155 13.8125 16.1415C13.2224 15.5764 12.7081 14.937 12.2825 14.2395L12.194 14.097C12.1305 14.0012 12.0791 13.898 12.041 13.7895C11.984 13.569 12.1325 13.392 12.1325 13.392C12.1325 13.392 12.497 12.993 12.6665 12.777C12.8077 12.5975 12.9393 12.4107 13.061 12.2175C13.238 11.9325 13.2935 11.64 13.2005 11.4135C12.7805 10.3875 12.3455 9.366 11.8985 8.352C11.81 8.151 11.5475 8.007 11.309 7.9785C11.228 7.9695 11.147 7.9605 11.066 7.9545C10.8646 7.94449 10.6627 7.9465 10.4615 7.9605V7.962Z" fill="#6C7694"/>
</svg>
