<svg width="24" height="22" viewBox="0 0 24 22" fill="none" xmlns="http://www.w3.org/2000/svg">
<path d="M24 -0.000341415V7.06433C24 9.78407 23.5688 12.3048 22.7065 14.6265C21.7778 16.9482 20.2189 19.2368 18.0299 21.4922L14.1493 18.6066C15.6086 17.0146 16.67 15.522 17.3333 14.129C17.9967 12.8023 18.3947 11.4756 18.5274 10.1489H13.8507V-0.000341415H24ZM10.1493 -0.000341415V7.06433C10.1493 9.78407 9.71808 12.3048 8.85572 14.6265C7.92703 16.9482 6.36816 19.2368 4.17911 21.4922L0.29851 18.6066C1.75788 17.0146 2.81924 15.522 3.48259 14.129C4.14594 12.8023 4.54395 11.4756 4.67662 10.1489H0V-0.000341415H10.1493Z" fill="#6B7185"/>
</svg>
